HIERARCHY
ROOT hip
{
  OFFSET 0 0 0
  CHANNELS 6 Xposition Yposition Zposition Zrotation Yrotation Xrotation
  JOINT abdomen
  {
    OFFSET 0 20.6881 -0.73152
    CHANNELS 3 Zrotation Xrotation Yrotation
    JOINT chest
    {
      OFFSET 0 11.7043 -0.48768
      CHANNELS 3 Zrotation Xrotation Yrotation
      JOINT neck
      {
        OFFSET 0 22.1894 -2.19456
        CHANNELS 3 Zrotation Xrotation Yrotation
        JOINT head
        {
          OFFSET -0.24384 7.07133 1.2192
          CHANNELS 3 Zrotation Xrotation Yrotation
          JOINT leftEye
          {
            OFFSET 4.14528 8.04674 8.04672
            CHANNELS 3 Zrotation Xrotation Yrotation
            End Site
            {
              OFFSET 1 0 0
            }
          }
          JOINT rightEye
          {
            OFFSET -3.6576 8.04674 8.04672
            CHANNELS 3 Zrotation Xrotation Yrotation
            End Site
            {
              OFFSET 1 0 0
            }
          }
        }
      }
      JOINT rCollar
      {
        OFFSET -2.68224 19.2634 -4.8768
        CHANNELS 3 Zrotation Xrotation Yrotation
        JOINT rShldr
        {
          OFFSET -8.77824 -1.95073 1.46304
          CHANNELS 3 Zrotation Xrotation Yrotation
          JOINT rForeArm
          {
            OFFSET -28.1742 -1.7115 0.48768
            CHANNELS 3 Zrotation Xrotation Yrotation
            JOINT rHand
            {
              OFFSET -22.5879 0.773209 7.07136
              CHANNELS 3 Zrotation Xrotation Yrotation
              JOINT rThumb1
              {
                OFFSET -1.2192 -0.487915 3.41376
                CHANNELS 3 Zrotation Xrotation Yrotation
                JOINT rThumb2
                {
                  OFFSET -3.37035 -0.52449 3.41376
                  CHANNELS 3 Zrotation Xrotation Yrotation
                  End Site
                  {
                    OFFSET -1.78271 -1.18214 1.43049
                  }
                }
              }
              JOINT rIndex1
              {
                OFFSET -7.75947 0.938293 5.60832
                CHANNELS 3 Zrotation Xrotation Yrotation
                JOINT rIndex2
                {
                  OFFSET -2.54057 -0.884171 1.56538
                  CHANNELS 3 Zrotation Xrotation Yrotation
                  End Site
                  {
                    OFFSET -1.62519 -0.234802 1.16502
                  }
                }
              }
              JOINT rMid1
              {
                OFFSET -8.24714 1.18213 3.41376
                CHANNELS 3 Zrotation Xrotation Yrotation
                JOINT rMid2
                {
                  OFFSET -3.10165 -0.590103 1.0647
                  CHANNELS 3 Zrotation Xrotation Yrotation
                  End Site
                  {
                    OFFSET -2.48547 -0.328903 0.83742
                  }
                }
              }
              JOINT rRing1
              {
                OFFSET -8.82822 0.546677 1.51678
                CHANNELS 3 Zrotation Xrotation Yrotation
                JOINT rRing2
                {
                  OFFSET -2.60934 -0.819778 -0.0198488
                  CHANNELS 3 Zrotation Xrotation Yrotation
                  End Site
                  {
                    OFFSET -2.33842 -0.294052 0.168128
                  }
                }
              }
              JOINT rPinky1
              {
                OFFSET -8.27202 -0.0477905 -0.4584
                CHANNELS 3 Zrotation Xrotation Yrotation
                JOINT rPinky2
                {
                  OFFSET -1.82734 -0.647385 -0.700984
                  CHANNELS 3 Zrotation Xrotation Yrotation
                  End Site
                  {
                    OFFSET -1.69225 -0.51767 -0.607171
                  }
                }
              }
            }
          }
        }
      }
      JOINT lCollar
      {
        OFFSET 2.68224 19.2634 -4.8768
        CHANNELS 3 Zrotation Xrotation Yrotation
        JOINT lShldr
        {
          OFFSET 8.77824 -1.95073 1.46304
          CHANNELS 3 Zrotation Xrotation Yrotation
          JOINT lForeArm
          {
            OFFSET 28.1742 -1.7115 0.48768
            CHANNELS 3 Zrotation Xrotation Yrotation
            JOINT lHand
            {
              OFFSET 22.5879 0.773209 7.07136
              CHANNELS 3 Zrotation Xrotation Yrotation
              JOINT lThumb1
              {
                OFFSET 1.2192 -0.487915 3.41376
                CHANNELS 3 Zrotation Xrotation Yrotation
                JOINT lThumb2
                {
                  OFFSET 3.37035 -0.52449 3.41376
                  CHANNELS 3 Zrotation Xrotation Yrotation
                  End Site
                  {
                    OFFSET 1.78271 -1.18214 1.43049
                  }
                }
              }
              JOINT lIndex1
              {
                OFFSET 7.75947 0.938293 5.60832
                CHANNELS 3 Zrotation Xrotation Yrotation
                JOINT lIndex2
                {
                  OFFSET 2.54057 -0.884171 1.56538
                  CHANNELS 3 Zrotation Xrotation Yrotation
                  End Site
                  {
                    OFFSET 1.62519 -0.234802 1.16502
                  }
                }
              }
              JOINT lMid1
              {
                OFFSET 8.24714 1.18213 3.41376
                CHANNELS 3 Zrotation Xrotation Yrotation
                JOINT lMid2
                {
                  OFFSET 3.10165 -0.590103 1.0647
                  CHANNELS 3 Zrotation Xrotation Yrotation
                  End Site
                  {
                    OFFSET 2.48547 -0.328903 0.83742
                  }
                }
              }
              JOINT lRing1
              {
                OFFSET 8.82822 0.546677 1.51678
                CHANNELS 3 Zrotation Xrotation Yrotation
                JOINT lRing2
                {
                  OFFSET 2.60934 -0.819778 -0.0198488
                  CHANNELS 3 Zrotation Xrotation Yrotation
                  End Site
                  {
                    OFFSET 2.33842 -0.294052 0.168128
                  }
                }
              }
              JOINT lPinky1
              {
                OFFSET 8.27202 -0.0477905 -0.4584
                CHANNELS 3 Zrotation Xrotation Yrotation
                JOINT lPinky2
                {
                  OFFSET 1.82734 -0.647385 -0.700984
                  CHANNELS 3 Zrotation Xrotation Yrotation
                  End Site
                  {
                    OFFSET 1.69225 -0.51767 -0.607171
                  }
                }
              }
            }
          }
        }
      }
    }
  }
  JOINT rButtock
  {
    OFFSET -8.77824 4.35084 1.2192
    CHANNELS 3 Zrotation Xrotation Yrotation
    JOINT rThigh
    {
      OFFSET 0 -1.70687 -2.19456
      CHANNELS 3 Zrotation Xrotation Yrotation
      JOINT rShin
      {
        OFFSET 0 -36.8199 0.73152
        CHANNELS 3 Zrotation Xrotation Yrotation
        JOINT rFoot
        {
          OFFSET 0.73152 -45.1104 -5.12064
          CHANNELS 3 Zrotation Xrotation Yrotation
          End Site
          {
            OFFSET -1.1221 -3.69964 12.103
          }
        }
      }
    }
  }
  JOINT lButtock
  {
    OFFSET 8.77824 4.35084 1.2192
    CHANNELS 3 Zrotation Xrotation Yrotation
    JOINT lThigh
    {
      OFFSET 0 -1.70687 -2.19456
      CHANNELS 3 Zrotation Xrotation Yrotation
      JOINT lShin
      {
        OFFSET 0 -36.8199 0.73152
        CHANNELS 3 Zrotation Xrotation Yrotation
        JOINT lFoot
        {
          OFFSET -0.73152 -45.1104 -5.12064
          CHANNELS 3 Zrotation Xrotation Yrotation
          End Site
          {
            OFFSET 1.1221 -3.69964 12.103
          }
        }
      }
    }
  }
}
MOTION
Frames:	6
Frame Time:	0.00833333
-226.39478 83.13 -40.72929 -177.3522 2.7617981 -173.34532 -3.0471666 -5.96209 -5.5331607 6.64004 -10.331885 -0.7741546 -4.6753016 26.298601 -19.034882 19.788397 -28.242035 -34.46185 -0.036522307 0.0030985477 0.004774233 -0.023556693 -0.062066153 0.046248443 0.03074739 0.00046316863 -0.0020733187 73.30372 -6.9613805 32.32256 -22.447466 -51.040855 107.671974 -7.5180564 -59.005604 -13.355078 0.019047651 0.013624054 0.0036085304 0.004431694 0.008627175 0.022142777 -0.026126716 0.007044534 -0.0027819413 7.777683 5.4784203 0.4355357 -0.006677507 -0.005412547 0.02297626 2.8657744 0.91128016 0.035433926 0.033954073 -0.0031797164 -0.030937826 10.320175 0.7039913 0.07209842 0.038911287 0.01977326 0.018113548 2.2130306 -0.8408206 -0.27921855 -0.032486256 0.03500162 -0.008490162 -77.980225 5.5504327 39.330948 26.975952 -43.896908 -91.46674 0.6010021 22.878883 -3.3596897 0.011887902 0.07287368 0.016280908 0.01103592 -0.009398745 -0.04629556 -0.031812143 -0.025419688 0.01495867 -7.750118 5.4910727 -0.46026528 0.016568288 0.0056069703 -0.020415584 -2.9089603 0.9504948 -0.115375966 0.014958267 0.0044640806 -0.024093766 -10.287107 0.7306696 -0.046945732 -0.01396748 0.013397509 -0.009902158 -2.1896555 -0.7625458 0.21918014 0.027641978 -0.011371543 0.016184548 8.037173 -21.995121 12.864241 -0.10971474 33.028027 0.47504246 4.3949013 -5.5903087 35.075565 0.039677005 0.05293778 -0.02299385 3.8347852 -29.718124 -21.34821 0.755226 51.635487 -1.3769716 -0.8508683 -16.359238 -5.0309367
-230.23352 83.84905 -40.206112 -178.47577 23.45951 -175.42116 -2.343215 -5.160358 -3.0391066 6.241762 -9.615397 -0.045632385 -4.183043 24.408642 -16.719091 16.803112 -26.59983 -28.958406 -0.033865456 0.0035219903 0.008078485 -0.033674527 -0.058444872 0.050705396 0.028436758 -0.008724102 -0.015154778 76.4616 2.7396057 25.191952 -23.660858 -49.76604 104.214806 -8.378296 -60.653366 -14.296685 0.023504788 -0.0025463216 0.0072723567 0.009412333 0.0111728795 0.027853802 -0.019262947 0.013914772 -0.008042032 7.775767 5.4696293 0.4261794 -0.008797994 -0.01461567 0.020508073 2.875906 0.9339105 0.030545669 0.034830112 -0.012867427 -0.02380908 10.334715 0.7064482 0.07339307 0.03446136 0.017073207 0.029601606 2.2377732 -0.8287448 -0.26796198 -0.026922163 0.034103803 -0.005750823 -67.13151 2.1703408 39.32631 27.331491 -42.949825 -89.6121 0.8394867 25.84214 -3.8635595 0.008097148 0.059864946 0.019085864 0.029175105 -0.004531948 -0.05655327 -0.033649366 -0.025672728 0.01430498 -7.7469435 5.487613 -0.47440016 0.023379575 0.012172965 -0.019920906 -2.8921947 0.95464075 -0.11627228 0.008457458 -0.008486487 -0.02920462 -10.2939415 0.74122256 -0.033868827 -0.0016534058 0.018915052 -0.011604853 -2.1929374 -0.7579791 0.22541736 0.022611994 -0.0100514535 0.014614144 4.2104664 -22.85324 14.748758 -0.19161808 34.122124 0.5173917 2.9904664 -1.9328917 38.851727 0.04176451 0.059155043 -0.033992577 1.8801309 -21.134407 -27.367916 0.46576366 42.84173 -0.88822913 -3.6096532 -17.797676 -11.513413
-234.29736 84.63699 -40.126537 -179.10547 38.734505 -176.91614 -2.265627 -3.994133 -2.042904 5.9906282 -10.002952 0.23779532 -3.7299247 23.068567 -14.340292 13.720341 -23.893478 -24.946873 -0.028926976 -0.010516933 0.013807976 -0.031169463 -0.04649782 0.06465995 0.024353478 -0.0044354117 -0.007233931 77.74963 9.878548 18.865969 -25.115564 -47.849434 99.50666 -9.046225 -61.89916 -15.06028 0.004740935 0.0082169715 0.01625865 0.026750099 0.020452837 0.030394284 -0.024484646 0.016480286 -0.004571325 7.762856 5.4519815 0.41909593 -0.010442705 -0.023461953 0.015257088 2.885425 0.96886164 0.02935465 0.031141575 -0.027386727 -0.010156576 10.34631 0.72536075 0.06707523 0.037032317 0.02529949 0.03959563 2.2524927 -0.80289984 -0.26489612 -0.033708557 0.0036338093 -0.0057524065 -57.020737 0.7519639 35.195393 27.324501 -43.048306 -89.779594 0.91041946 26.639725 -4.0094967 0.011288436 0.034438454 0.00615836 0.031066477 -0.0030844987 -0.06598012 -0.033414636 -0.025579797 0.011544234 -7.7478247 5.4969664 -0.47644824 0.02253165 0.017776832 -0.014133088 -2.8684335 0.95405126 -0.11888261 0.00081502565 -0.020255083 -0.021672076 -10.2940645 0.7460414 -0.022787245 0.008601254 0.013410991 -0.009834039 -2.2044055 -0.7602788 0.20336623 0.018807255 0.013915669 0.017751183 1.6946621 -25.508282 14.392843 -0.29282174 36.533554 0.5186406 3.6819043 -1.9476236 35.83384 0.032425832 0.05220764 -0.031415176 1.7619134 -16.336412 -17.784153 0.3203992 38.327354 -0.650953 -3.396182 -18.326591 -9.70133
-238.1437 84.60819 -40.473484 177.89137 48.641174 179.49855 -4.434037 -1.8920851 -2.5333595 6.047326 -11.126403 0.13305832 -4.4348392 21.901035 -12.2145195 11.699945 -21.143993 -22.069798 -0.033756822 -0.027356742 0.0211177 -0.027836392 -0.027273685 0.06785133 0.026458707 0.0017874961 0.0022554386 81.45203 13.154765 7.8480296 -26.012373 -46.420475 96.26403 -9.24839 -62.235477 -15.289793 -0.018489001 0.014331594 0.020279163 0.025115553 0.021252263 0.024635216 -0.018540561 0.016463425 0.0056665307 7.7473097 5.45142 0.4406282 -0.0064820037 -0.049373407 0.0064231413 2.8934886 0.97464573 0.050729115 0.032682426 -0.052542157 -0.0019732798 10.352445 0.7264567 0.042167228 0.04216935 0.026720759 0.043965366 2.252218 -0.7695272 -0.2576883 -0.04510041 -0.022370152 -0.0035448573 -50.851048 -0.51010364 21.956278 27.103178 -43.811825 -91.14933 0.9070006 26.701569 -4.043516 0.007238842 0.01824173 -0.003998403 0.014610345 -0.0031575982 -0.045940947 -0.037251826 -0.01838146 0.0016619186 -7.7549186 5.491018 -0.48696065 0.027528148 0.009453516 -0.0151661355 -2.8600006 0.9680101 -0.11778363 -0.013848703 -0.014331769 -0.015358853 -10.315947 0.748752 -0.028132347 0.016804157 -0.0014792376 -0.007365403 -2.2203932 -0.7628068 0.19105724 0.009726398 0.027666071 0.027408108 -0.75715715 -29.23062 11.759051 -0.43959126 41.401787 0.61629146 2.6422627 -7.906869 14.783578 0.017269881 0.043686308 0.0012734324 -1.2907461 -13.928024 -8.521245 0.21236646 34.249916 -0.5705274 -2.2135835 -18.227058 -6.4664106
-241.70645 83.536224 -40.732716 170.01381 54.67215 171.08472 -10.079317 1.5035907 -2.668664 5.3105097 -12.217 -0.036684364 -5.552045 20.696371 -10.8511305 11.331188 -19.542175 -19.615751 -0.041884333 -0.050510835 0.03434545 -0.03398459 -0.015007119 0.059651647 0.01594987 0.012337246 0.01740493 86.38914 12.085957 -7.0373425 -26.472382 -45.597275 94.5072 -9.059575 -61.80922 -15.105077 -0.04533425 0.001857564 0.00975035 0.02158154 0.0024320395 0.010989533 -0.0028563556 0.012707305 0.001795211 7.746977 5.47833 0.44668704 -0.011078081 -0.058745433 -0.007305798 2.9237304 0.9871441 0.070008956 0.037150923 -0.061883356 -0.018578324 10.33631 0.6916414 0.025988825 0.035155963 0.037360962 0.03818857 2.2521644 -0.7811149 -0.2620062 -0.039977886 -0.0115017835 -0.0036525067 -50.846664 -0.8758582 2.5619884 26.968351 -44.189365 -91.79973 1.0091817 28.13128 -4.2795186 0.017477352 0.009743256 -0.02065058 -0.006822103 0.007750114 -0.030680312 -0.039943784 -0.019571772 -0.008986351 -7.766111 5.4778957 -0.49318323 0.021358645 0.0070244665 -0.02670409 -2.8514087 0.9739115 -0.096877895 -0.02447429 0.0016093337 -0.015408828 -10.326678 0.75372034 -0.028702779 0.01906314 -0.020751426 -0.02345046 -2.2194774 -0.7569498 0.21137674 0.008457565 0.025889253 0.022870721 -6.7289453 -33.439247 4.087119 -0.8065628 53.997715 1.1587825 -1.9863956 -11.678629 -5.043703 0.015594875 0.042413466 -0.006476253 -8.2638 -13.863528 -4.02783 0.18737279 33.35434 -0.6043605 -1.0901273 -17.922798 -3.9239798
-245.02475 83.047874 -40.33356 158.84137 60.81418 159.8637 -14.766301 3.5779767 -2.048645 2.9071596 -11.673819 -0.26628047 -6.450635 19.092318 -9.298899 12.72015 -19.22524 -15.879209 -0.03328348 -0.06123369 0.030295173 -0.041989796 -0.021848923 0.04277132 0.004116428 0.0075903274 0.019111956 86.30108 11.5415535 -18.804888 -27.104025 -43.968506 91.22349 -8.906315 -61.541122 -14.951765 -0.040119637 -0.0012365256 -7.110574e-06 0.031316254 -0.012964266 -0.011297336 -0.0004705764 -0.025198553 -0.017819049 7.7448525 5.480656 0.43360555 -0.020173213 -0.040295225 -0.0075538894 2.9344752 0.99601644 0.0868029 0.018694125 -0.05346976 -0.027050637 10.330443 0.6819459 0.02045088 0.024103818 0.04799107 0.028109392 2.2465563 -0.77873576 -0.2594902 -0.025300885 0.008496977 -0.008088526 -55.150772 2.6788332 -14.924354 26.860102 -44.429188 -92.31501 1.0447258 29.011759 -4.409926 0.019050008 0.014083581 -0.027714953 -0.008489626 0.01905247 -0.041612353 -0.035218198 -0.025332727 -0.0115843965 -7.7502537 5.4783845 -0.47524273 0.012811145 0.012849973 -0.05114976 -2.8554451 0.95836896 -0.075103305 -0.011916908 0.0019396556 -0.013798579 -10.321935 0.75503665 -0.026676986 0.007104415 -0.018642543 -0.023887893 -2.219223 -0.75192875 0.21491824 0.002811188 0.02071249 0.0043432745 -13.5567 -33.87819 -4.407137 -1.4950552 65.4377 2.0239372 -3.1706786 -9.883773 -8.118503 0.028364934 0.03381568 -0.030345675 -14.044572 -15.092122 0.8501796 0.2205939 33.997166 -0.61010975 -0.25157166 -18.25019 -1.9637619
